<svg width="152" height="152" viewBox="0 0 152 152" fill="none" xmlns="http://www.w3.org/2000/svg">
<g clip-path="url(#clip0)">
<rect y="0.148438" width="152" height="152" rx="33.5469" fill="#C1BEA3"/>
<g filter="url(#filter0_d)">
<path d="M29.0938 0.148438H123.5V119.492C123.5 121.952 121.506 123.945 119.047 123.945H33.5469C31.0875 123.945 29.0938 121.952 29.0938 119.492V0.148438Z" fill="#3ACC9F"/>
</g>
<path d="M29.0938 0.148438H123.5V112.219C123.5 114.678 121.506 116.672 119.047 116.672H33.5469C31.0875 116.672 29.0938 114.678 29.0938 112.219V0.148438Z" fill="white"/>
<path d="M57.6657 76.75C56.0883 75.5242 52.7356 73.386 49.495 71.2845C46.2545 69.1831 40.3114 67.1921 41.3472 58.6883C42.383 50.1845 48.3243 43.9414 52.1958 41.798C56.0673 39.6545 60.8764 40.6037 60.9062 43.4599C60.936 46.3161 60.7047 56.198 53.0002 67.46C52.7549 67.8207 52.1572 68.5335 53.1544 68.572C54.1517 68.6105 54.341 69.395 55.9902 69.5579C55.9902 69.5579 56.5265 69.1463 57.1031 67.614C57.6797 66.0817 57.536 65.7981 58.6612 63.2781C59.7864 60.7582 64.1556 50.9129 63.1969 43.1762C62.2382 35.4394 48.8606 38.2343 43.608 46.0867C38.3555 53.939 37.7719 58.2732 39.3913 63.9365C40.3885 67.4214 43.948 69.4913 51.16 74.0094C58.372 78.5275 58.1704 80.9424 56.4511 84.8125C54.7318 88.6826 45.2993 88.3552 46.2194 83.9369C46.3842 83.1471 42.8545 82.3276 42.581 82.8074C42.3076 83.2873 43.1488 86.4271 45.4868 87.6915C47.8248 88.9558 53.023 89.5845 58.1897 87.413C63.3563 85.2416 59.2378 77.9758 57.6657 76.75Z" fill="#808483"/>
<path d="M75.8204 85.1366C75.0826 85.1646 74.3469 85.2294 73.6157 85.331C74.4289 82.1263 74.7828 77.8394 75.0825 71.9134C75.5014 63.6442 76.1078 59.5131 76.2393 58.4029C76.3707 57.2926 76.5109 56.3015 76.3374 54.799C76.1639 53.2964 73.1968 54.799 73.1968 54.799C73.16 56.9214 72.5675 60.8703 70.8763 67.1536C69.7487 71.2143 68.3181 75.1849 66.5964 79.032C65.3696 73.3283 68.2211 63.1206 68.2211 63.1206C67.1187 60.753 64.1901 61.7074 64.1901 61.7074C61.1248 78.0933 63.9816 79.9198 64.609 80.6535C65.2364 81.3873 65.8148 81.1789 67.6007 81.0581C69.3866 80.9372 69.0974 79.2772 69.4409 77.7834C69.7844 76.2896 73.0635 63.9944 73.0635 63.9944C73.0635 63.9944 72.4572 68.8803 72.7288 76.4139C72.8883 80.8532 72.7148 83.5097 72.1171 85.5709C67.2326 86.4623 61.7768 88.4691 60.2415 89.3325C58.2856 90.4235 56.9834 92.1746 57.6424 93.4775C58.4819 95.1342 63.7432 95.0536 65.8674 94.7857C70.4031 94.2271 70.6853 92.0644 72.4151 88.6565C72.7085 88.072 72.9603 87.4675 73.1687 86.8475C75.0352 86.5253 76.744 86.3362 78.076 86.1471C82.4224 85.5201 82.901 86.9176 82.9991 88.0839C83.0972 89.2502 83.2602 89.3921 83.2602 89.3921L84.9374 89.7597C84.9374 89.7597 86.0627 89.7318 85.4089 87.6128C84.7552 85.4939 81.2254 84.972 75.8204 85.1366ZM70.2454 89.3815C68.1984 92.3411 67.315 93.4881 63.3962 93.8628C60.4851 94.143 59.5545 93.0626 60.2924 92.2237C63.1579 88.9648 67.6673 87.9841 71.5213 87.168C71.1711 87.9466 70.7437 88.6882 70.2454 89.3815V89.3815Z" fill="#808483"/>
<path d="M114.874 76.0599C114.874 76.0599 112.264 81.24 111.298 81.5745C110.333 81.9089 110.207 82.436 110.091 81.2242C109.975 80.0124 109.796 73.1548 109.916 72.5366C110.035 71.9184 110.335 71.2792 109.968 70.6523C109.602 70.0253 108.67 69.3003 108.03 69.0289C107.39 68.7575 106.961 68.9729 106.773 69.2391C106.586 69.5053 106.573 70.0078 106.41 70.2512C105.901 70.8761 105.46 71.5543 105.096 72.2739C104.341 73.6976 102.87 76.827 102.117 77.2473C101.363 77.6676 102.621 72.1477 102.795 68.873C102.968 65.5983 102.646 64.8016 101.955 64.39C101.265 63.9785 101.226 63.8996 100.755 63.7438C100.283 63.5879 100.02 63.376 99.6541 63.5862C99.2878 63.7963 97.9506 65.1255 95.83 69.8152C95.83 69.8152 96.7413 62.2133 95.5496 58.8755C95.2621 58.0699 94.4612 58.5778 93.683 58.928C92.9049 59.2782 92.0514 59.1399 92.2161 59.5567C92.5053 60.2922 92.8996 62.5109 92.996 65.2498C92.5157 66.1849 91.5151 67.6752 90.2181 67.0675C88.3797 66.2059 87.4981 61.0014 87.3842 60.5986C87.3053 60.3219 86.6007 60.3167 86.2467 60.1503C86.1854 60.019 86.1275 59.8982 86.0715 59.7843C86.3133 59.1995 85.6158 58.8755 85.6158 58.8755C85.6158 58.8755 82.405 59.3728 81.5304 60.4516C80.6559 61.5303 78.2986 64.9136 78.2986 72.0375C78.2986 79.1613 78.9541 83.9105 81.5304 84.2643C84.1068 84.618 86.9232 82.4361 88.993 75.715C89.6678 73.526 89.5451 70.9763 89.0719 68.5351C89.2063 68.5387 89.3398 68.5124 89.4628 68.4581C90.3391 68.0395 90.0867 68.4756 91.0647 68.4581C91.6308 68.4493 92.4264 68.0342 92.9925 67.6857C92.9516 69.0331 92.8127 70.3757 92.5771 71.703C91.6342 76.8637 91.7937 80.3539 92.0005 80.7059C92.2073 81.0579 94.2018 81.2312 94.5681 80.8635C94.9344 80.4957 95.1412 80.4257 95.3129 79.2769C95.4847 78.1281 96.8062 69.2058 98.8638 65.6841C99.23 65.0572 99.5105 65.0275 99.5105 65.6596C99.5105 66.2918 99.3738 69.0097 99.5105 72.2669C99.6472 75.5241 99.5613 78.3382 100.697 79.7637C100.949 80.0806 102.53 79.8163 102.53 79.8163C102.53 79.8163 105.089 76.5188 105.78 73.6468C106.47 70.7749 106.616 71.2319 106.616 71.2319C106.616 71.2319 106.978 79.3539 107.269 81.5272C107.56 83.7004 108.449 84.893 109.444 84.6793C110.44 84.4657 111.749 83.7371 112.273 82.5323C112.797 81.3275 115.095 76.8007 115.151 76.228C115.207 75.6554 114.874 76.0599 114.874 76.0599ZM84.6799 80.3679C83.4198 82.38 81.2816 85.3167 80.7085 76.0599C80.1354 66.8031 84.6694 61.5058 84.6694 61.5058C84.75 61.6616 84.8288 61.8175 84.9042 61.9733C85.2319 64.2919 85.8821 65.854 86.599 66.8767C87.966 73.4139 85.6789 78.776 84.6799 80.3679Z" fill="#808483"/>
<rect x="28.9453" y="4.89844" width="94.5547" height="25.3828" fill="url(#paint0_linear)" fill-opacity="0.31"/>
<g filter="url(#filter1_d)">
<rect x="38.8906" y="19.5938" width="3.08521" height="1.78125" fill="#808483" fill-opacity="0.69"/>
<rect x="44.7654" y="19.5938" width="3.08521" height="1.78125" fill="#808483" fill-opacity="0.69"/>
<rect x="50.6401" y="19.5938" width="3.08521" height="1.78125" fill="#808483" fill-opacity="0.69"/>
<rect x="56.5148" y="19.5938" width="3.08521" height="1.78125" fill="#808483" fill-opacity="0.69"/>
<rect x="62.3896" y="19.5938" width="3.08521" height="1.78125" fill="#808483" fill-opacity="0.69"/>
<rect x="68.2643" y="19.5938" width="3.08521" height="1.78125" fill="#808483" fill-opacity="0.69"/>
<rect x="74.1391" y="19.5938" width="3.08521" height="1.78125" fill="#808483" fill-opacity="0.69"/>
<rect x="80.0139" y="19.5938" width="3.08521" height="1.78125" fill="#808483" fill-opacity="0.69"/>
<rect x="85.8886" y="19.5938" width="3.08521" height="1.78125" fill="#808483" fill-opacity="0.69"/>
<rect x="91.7633" y="19.5938" width="3.08521" height="1.78125" fill="#808483" fill-opacity="0.69"/>
<rect x="97.6381" y="19.5938" width="3.08521" height="1.78125" fill="#808483" fill-opacity="0.69"/>
<rect x="104.149" y="19.5938" width="3.08521" height="1.78125" fill="#808483" fill-opacity="0.69"/>
<rect x="110.024" y="19.5938" width="3.08521" height="1.78125" fill="#808483" fill-opacity="0.69"/>
</g>
</g>
<defs>
<filter id="filter0_d" x="16.7734" y="-12.1719" width="120.234" height="149.625" filterUnits="userSpaceOnUse" color-interpolation-filters="sRGB">
<feFlood flood-opacity="0" result="BackgroundImageFix"/>
<feColorMatrix in="SourceAlpha" type="matrix" values="0 0 0 0 0 0 0 0 0 0 0 0 0 0 0 0 0 0 127 0" result="hardAlpha"/>
<feMorphology radius="1.1875" operator="dilate" in="SourceAlpha" result="effect1_dropShadow"/>
<feOffset dx="0.59375" dy="0.59375"/>
<feGaussianBlur stdDeviation="5.86328"/>
<feColorMatrix type="matrix" values="0 0 0 0 0 0 0 0 0 0 0 0 0 0 0 0 0 0 0.25 0"/>
<feBlend mode="normal" in2="BackgroundImageFix" result="effect1_dropShadow"/>
<feBlend mode="normal" in="SourceGraphic" in2="effect1_dropShadow" result="shape"/>
</filter>
<filter id="filter1_d" x="38.8906" y="19.5938" width="74.5156" height="2.96875" filterUnits="userSpaceOnUse" color-interpolation-filters="sRGB">
<feFlood flood-opacity="0" result="BackgroundImageFix"/>
<feColorMatrix in="SourceAlpha" type="matrix" values="0 0 0 0 0 0 0 0 0 0 0 0 0 0 0 0 0 0 127 0" result="hardAlpha"/>
<feOffset dx="0.296875" dy="1.1875"/>
<feColorMatrix type="matrix" values="0 0 0 0 1 0 0 0 0 1 0 0 0 0 1 0 0 0 1 0"/>
<feBlend mode="normal" in2="BackgroundImageFix" result="effect1_dropShadow"/>
<feBlend mode="normal" in="SourceGraphic" in2="effect1_dropShadow" result="shape"/>
</filter>
<linearGradient id="paint0_linear" x1="76.2969" y1="7.14157" x2="76.2969" y2="29.3958" gradientUnits="userSpaceOnUse">
<stop stop-color="#C4C4C4" stop-opacity="0"/>
<stop offset="0.583333" stop-color="#C4C4C4"/>
<stop offset="0.697376" stop-color="#C4C4C4" stop-opacity="0"/>
</linearGradient>
<clipPath id="clip0">
<rect width="152" height="152" fill="white"/>
</clipPath>
</defs>
</svg>
