<svg width="187" height="155" viewBox="0 0 187 155" fill="none" xmlns="http://www.w3.org/2000/svg">
<path d="M46.2026 92.4353C42.3814 89.4657 34.2592 84.2858 26.4088 79.195C18.5584 74.1041 4.16112 69.2807 6.67037 48.6799C9.17962 28.079 23.5727 12.955 32.9516 7.76236C42.3305 2.56973 53.9807 4.86918 54.0529 11.7885C54.1251 18.7077 53.5647 42.6472 34.9003 69.9297C34.3059 70.8037 32.8581 72.5303 35.2739 72.6237C37.6898 72.717 38.1484 74.6175 42.1436 75.0121C42.1436 75.0121 43.4429 74.0151 44.8397 70.303C46.2366 66.591 45.8885 65.9038 48.6143 59.7991C51.3401 53.6943 61.9247 29.8438 59.6023 11.1011C57.2798 -7.64155 24.8719 -0.870712 12.1474 18.152C-0.57719 37.1747 -1.99105 47.6743 1.93203 61.3941C4.34787 69.8363 12.971 74.8508 30.4423 85.7961C47.9136 96.7413 47.4253 102.591 43.2602 111.967C39.0951 121.343 16.2445 120.549 18.4735 109.846C18.8726 107.933 10.3217 105.947 9.6594 107.11C8.99706 108.272 11.0349 115.879 16.6987 118.941C22.3626 122.004 34.9555 123.528 47.472 118.267C59.9885 113.007 50.0111 95.4049 46.2026 92.4353Z" fill="#4D4D4D"/>
<path d="M91.7052 112.752C89.9181 112.82 88.1356 112.977 86.3642 113.223C88.3342 105.459 89.1917 95.0742 89.9178 80.7181C90.9325 60.6857 92.4016 50.6779 92.72 47.9882C93.0384 45.2986 93.3781 42.8976 92.9578 39.2576C92.5375 35.6177 85.3494 39.2576 85.3494 39.2576C85.2603 44.3994 83.8251 53.9658 79.7279 69.1873C76.9963 79.0247 73.5306 88.6436 69.3598 97.9632C66.3878 84.1459 73.2956 59.4173 73.2956 59.4173C70.625 53.6816 63.5304 55.9936 63.5304 55.9936C56.1045 95.6893 63.0252 100.114 64.5452 101.892C66.0652 103.669 67.4662 103.164 71.7926 102.872C76.1191 102.579 75.4185 98.5572 76.2507 94.9385C77.0828 91.3198 85.0266 61.5341 85.0266 61.5341C85.0266 61.5341 83.5577 73.3702 84.2158 91.6208C84.6022 102.375 84.1818 108.811 82.734 113.804C70.901 115.963 57.6841 120.825 53.9648 122.917C49.2265 125.56 46.0719 129.802 47.6683 132.958C49.702 136.972 62.4478 136.776 67.5937 136.127C78.5817 134.774 79.2653 129.535 83.4558 121.279C84.1666 119.863 84.7766 118.399 85.2814 116.897C89.8032 116.116 93.9428 115.658 97.1696 115.2C107.699 113.681 108.858 117.067 109.096 119.892C109.334 122.717 109.729 123.061 109.729 123.061L113.792 123.952C113.792 123.952 116.518 123.884 114.934 118.751C113.35 113.618 104.799 112.353 91.7052 112.752ZM78.1996 123.036C73.2406 130.205 71.1007 132.984 61.6071 133.892C54.5549 134.57 52.3004 131.953 54.0879 129.921C61.0297 122.026 71.954 119.65 81.2904 117.673C80.4421 119.559 79.4067 121.356 78.1996 123.036Z" fill="#4D4D4D"/>
<path d="M186.314 90.764C186.314 90.764 179.992 103.313 177.652 104.123C175.313 104.934 175.007 106.21 174.727 103.275C174.447 100.339 174.014 83.7261 174.303 82.2286C174.591 80.731 175.317 79.1824 174.43 77.6637C173.543 76.1449 171.284 74.3886 169.734 73.731C168.184 73.0735 167.144 73.5954 166.69 74.2402C166.236 74.885 166.206 76.1025 165.811 76.6922C164.576 78.206 163.508 79.849 162.627 81.5922C160.797 85.0412 157.235 92.6223 155.409 93.6404C153.583 94.6586 156.632 81.2866 157.052 73.3534C157.472 65.4202 156.691 63.4901 155.018 62.4932C153.345 61.4962 153.252 61.3051 152.11 60.9276C150.968 60.55 150.331 60.0367 149.444 60.5458C148.556 61.0549 145.317 64.2749 140.179 75.6359C140.179 75.6359 142.387 57.2198 139.5 49.1339C138.804 47.1825 136.864 48.4126 134.978 49.2611C133.093 50.1096 131.026 49.7746 131.425 50.7843C132.125 52.566 133.08 57.941 133.314 64.576C132.151 66.8414 129.726 70.4516 126.585 68.9795C122.131 66.8923 119.995 54.2841 119.719 53.3083C119.528 52.638 117.821 52.6253 116.964 52.2223C116.815 51.9041 116.675 51.6114 116.539 51.3357C117.125 49.9187 115.435 49.1339 115.435 49.1339C115.435 49.1339 107.657 50.3388 105.538 52.952C103.42 55.5653 97.709 63.7616 97.709 81.0195C97.709 98.2773 99.2969 109.782 105.538 110.639C111.779 111.496 118.602 106.21 123.617 89.9284C125.251 84.6254 124.954 78.4486 123.808 72.5348C124.133 72.5435 124.457 72.4798 124.755 72.3481C126.877 71.3342 126.266 72.3906 128.635 72.3481C130.007 72.3269 131.934 71.3214 133.306 70.4772C133.206 73.7412 132.87 76.9937 132.299 80.2091C130.015 92.7113 130.401 101.166 130.902 102.019C131.403 102.872 136.235 103.292 137.122 102.401C138.01 101.51 138.511 101.34 138.927 98.5572C139.343 95.7743 142.544 74.1595 147.529 65.6281C148.416 64.1094 149.096 64.0374 149.096 65.5689C149.096 67.1004 148.764 73.6845 149.096 81.5752C149.427 89.466 149.219 96.2832 151.97 99.7365C152.581 100.504 156.411 99.8639 156.411 99.8639C156.411 99.8639 162.61 91.8756 164.283 84.9181C165.955 77.9607 166.308 79.0679 166.308 79.0679C166.308 79.0679 167.187 98.7439 167.892 104.009C168.596 109.273 170.749 112.162 173.16 111.645C175.572 111.127 178.744 109.362 180.013 106.444C181.283 103.525 186.849 92.5585 186.985 91.1712C187.121 89.784 186.314 90.764 186.314 90.764ZM113.168 101.2C110.115 106.075 104.935 113.189 103.547 90.764C102.159 68.339 113.142 55.5059 113.142 55.5059C113.338 55.8835 113.529 56.261 113.711 56.6386C114.505 62.2555 116.08 66.0396 117.817 68.5172C121.129 84.3538 115.588 97.3439 113.168 101.2Z" fill="#4D4D4D"/>
<line x1="41" y1="153" x2="147" y2="153" stroke="#3ACC9F" stroke-width="4"/>
</svg>
