<svg width="189" height="155" viewBox="0 0 189 155" fill="none" xmlns="http://www.w3.org/2000/svg">
<path d="M47.1411 92.4353C43.3146 89.4657 35.1811 84.2858 27.3198 79.195C19.4585 74.1041 5.04117 69.2807 7.55391 48.6799C10.0666 28.079 24.4797 12.955 33.8717 7.76236C43.2636 2.56973 54.93 4.86918 55.0023 11.7885C55.0746 18.7077 54.5134 42.6472 35.8231 69.9297C35.2279 70.8037 33.778 72.5303 36.1972 72.6237C38.6164 72.717 39.0757 74.6175 43.0765 75.0121C43.0765 75.0121 44.3775 74.0151 45.7763 70.303C47.1751 66.591 46.8265 65.9038 49.5561 59.7991C52.2857 53.6943 62.885 29.8438 60.5594 11.1011C58.2337 -7.64155 25.7808 -0.870712 13.0385 18.152C0.296275 37.1747 -1.11955 47.6743 2.80898 61.3941C5.22818 69.8363 13.8633 74.8508 31.3589 85.7961C48.8545 96.7413 48.3655 102.591 44.1946 111.967C40.0237 121.343 17.1413 120.549 19.3735 109.846C19.7731 107.933 11.2104 105.947 10.5471 107.11C9.88384 108.272 11.9245 115.879 17.5962 118.941C23.2679 122.004 35.8783 123.528 48.4122 118.267C60.9461 113.007 50.9548 95.4049 47.1411 92.4353Z" fill="#EBEBEB"/>
<path d="M92.7071 112.752C90.9174 112.82 89.1325 112.977 87.3586 113.223C89.3314 105.459 90.1901 95.0742 90.9171 80.7181C91.9333 60.6857 93.4044 50.6779 93.7233 47.9882C94.0421 45.2986 94.3823 42.8976 93.9614 39.2576C93.5405 35.6177 86.3424 39.2576 86.3424 39.2576C86.2531 44.3994 84.816 53.9658 80.7131 69.1873C77.9777 79.0247 74.5072 88.6436 70.3306 97.9632C67.3544 84.1459 74.2719 59.4173 74.2719 59.4173C71.5976 53.6816 64.4931 55.9936 64.4931 55.9936C57.0569 95.6893 63.9872 100.114 65.5093 101.892C67.0314 103.669 68.4343 103.164 72.7668 102.872C77.0992 102.579 76.3977 98.5572 77.231 94.9385C78.0644 91.3198 86.0192 61.5341 86.0192 61.5341C86.0192 61.5341 84.5483 73.3702 85.2073 91.6208C85.5942 102.375 85.1732 108.811 83.7233 113.804C71.874 115.963 58.6386 120.825 54.9142 122.917C50.1693 125.56 47.0103 129.802 48.6089 132.958C50.6455 136.972 63.409 136.776 68.562 136.127C79.5654 134.774 80.2498 129.535 84.4462 121.279C85.158 119.863 85.7688 118.399 86.2743 116.897C90.8024 116.116 94.9477 115.658 98.179 115.2C108.723 113.681 109.884 117.067 110.122 119.892C110.36 122.717 110.755 123.061 110.755 123.061L114.824 123.952C114.824 123.952 117.554 123.884 115.968 118.751C114.382 113.618 105.819 112.353 92.7071 112.752ZM79.1827 123.036C74.2168 130.205 72.0739 132.984 62.5672 133.892C55.5051 134.57 53.2475 131.953 55.0375 129.921C61.9889 122.026 72.9284 119.65 82.2778 117.673C81.4283 119.559 80.3915 121.356 79.1827 123.036Z" fill="#EBEBEB"/>
<path d="M187.447 90.764C187.447 90.764 181.116 103.313 178.774 104.123C176.431 104.934 176.125 106.21 175.844 103.275C175.564 100.339 175.13 83.7261 175.419 82.2286C175.708 80.731 176.435 79.1824 175.547 77.6637C174.658 76.1449 172.396 74.3886 170.844 73.731C169.292 73.0735 168.251 73.5954 167.796 74.2402C167.341 74.885 167.311 76.1025 166.916 76.6922C165.679 78.206 164.61 79.849 163.727 81.5922C161.894 85.0412 158.327 92.6223 156.499 93.6404C154.671 94.6586 157.724 81.2866 158.145 73.3534C158.565 65.4202 157.783 63.4901 156.108 62.4932C154.433 61.4962 154.339 61.3051 153.196 60.9276C152.052 60.55 151.414 60.0367 150.526 60.5458C149.637 61.0549 146.393 64.2749 141.249 75.6359C141.249 75.6359 143.459 57.2198 140.568 49.1339C139.871 47.1825 137.928 48.4126 136.04 49.2611C134.152 50.1096 132.082 49.7746 132.482 50.7843C133.183 52.566 134.14 57.941 134.373 64.576C133.208 66.8414 130.781 70.4516 127.635 68.9795C123.175 66.8923 121.036 54.2841 120.76 53.3083C120.568 52.638 118.859 52.6253 118 52.2223C117.852 51.9041 117.711 51.6114 117.575 51.3357C118.162 49.9187 116.47 49.1339 116.47 49.1339C116.47 49.1339 108.681 50.3388 106.559 52.952C104.437 55.5653 98.719 63.7616 98.719 81.0195C98.719 98.2773 100.309 109.782 106.559 110.639C112.809 111.496 119.641 106.21 124.663 89.9284C126.3 84.6254 126.002 78.4486 124.854 72.5348C125.18 72.5435 125.504 72.4798 125.802 72.3481C127.928 71.3342 127.316 72.3906 129.688 72.3481C131.062 72.3269 132.992 71.3214 134.365 70.4772C134.266 73.7412 133.929 76.9937 133.357 80.2091C131.07 92.7113 131.457 101.166 131.959 102.019C132.46 102.872 137.299 103.292 138.187 102.401C139.076 101.51 139.578 101.34 139.994 98.5572C140.411 95.7743 143.617 74.1595 148.608 65.6281C149.497 64.1094 150.177 64.0374 150.177 65.5689C150.177 67.1004 149.845 73.6845 150.177 81.5752C150.509 89.466 150.3 96.2832 153.055 99.7365C153.668 100.504 157.503 99.8639 157.503 99.8639C157.503 99.8639 163.71 91.8756 165.385 84.9181C167.06 77.9607 167.413 79.0679 167.413 79.0679C167.413 79.0679 168.293 98.7439 168.999 104.009C169.705 109.273 171.86 112.162 174.275 111.645C176.69 111.127 179.866 109.362 181.138 106.444C182.409 103.525 187.983 92.5585 188.119 91.1712C188.255 89.784 187.447 90.764 187.447 90.764ZM114.199 101.2C111.142 106.075 105.955 113.189 104.565 90.764C103.175 68.339 114.174 55.5059 114.174 55.5059C114.369 55.8835 114.561 56.261 114.743 56.6386C115.539 62.2555 117.116 66.0396 118.855 68.5172C122.171 84.3538 116.623 97.3439 114.199 101.2Z" fill="#EBEBEB"/>
<line x1="41.9313" y1="153" x2="148.079" y2="153" stroke="#3ACC9F" stroke-width="4"/>
</svg>
